<?xml version="1.0" encoding="utf-8"?>
<!-- Generator: Adobe Illustrator 25.4.1, SVG Export Plug-In . SVG Version: 6.00 Build 0)  -->
<svg id="mask" version="1.1" xmlns="http://www.w3.org/2000/svg" xmlns:xlink="http://www.w3.org/1999/xlink" x="0px" y="0px" viewBox="0 0 581.7 54.1" style="enable-background:new 0 0 581.7 54.1;" xml:space="preserve">
<style type="text/css">
	.st0{fill:#CDBD9A;stroke: #FFFFFF;}
	.st1{fill:#D9CBA6;stroke: #FFFFFF;}
	.st2{fill:#DFD2B3;stroke: #FFFFFF;}
	.st3{fill:#E8DBB2;stroke: #FFFFFF;}
	.st4{fill:#F8EFC3;stroke: #FFFFFF;}
	.st5{fill:#CAB78A;stroke: #FFFFFF;}
	.st6{fill:#FBF7D2;stroke: #FFFFFF;}
	.st7{fill:#FFFFFF;stroke: #FFFFFF;}
	.st8{fill:none;stroke:#FFFFFF;stroke-width:23;stroke-linecap:round;stroke-linejoin:round;stroke-miterlimit:10;}
</style>
<image xmlns:xlink="http://www.w3.org/1999/xlink" xlink:href="./_assets/images/top/fv-areaLine_bg.jpg" width="100%" height="100%" mask="url(#clipmask)"></image><!-- mask="url(#clipmask)" が重要 -->
<mask id="clipmask" maskUnits="objectBoundingBox">
	<!-- <path class="st0" d="M504.5,32.1c0-0.8,0.4-1.1,0.8-1.1c1.3-0.2,2.6-0.3,3.9-0.4c1,0.2,1.4,1.5,2.5,1.5c0.2-0.1,0.7-0.2,0.7-0.4
		c0.4-1.6,1.9-2.7,3.6-2.7c2.2-0.2,4.5,0,6.5-0.8c1.5-0.6,2.7-1.2,4.2-0.4c0.6,0.1,1.1,0.1,1.7,0c0.7,0,1.4-0.1,2.1-0.2
		c0.2-0.7,0.3-1.2,0.5-1.7c0.8,0.1,0.6,0.8,0.8,1.2c0.1,0.1,0.3,0.3,0.3,0.3c0.2-0.2,0.4-0.4,0.6-0.6c1.4-1.9,4.1-0.8,5.6-2.7
		c2.5,1.8,5.4-0.5,8,0.9l0.4-1.5c1-0.5,1.4,0.1,2,0.6c2.3-1,4.5-2.3,7.2-0.6c3.1-2.7,7.6-0.2,10.7-2.9l1.5,0.9
		c2.9-1.7,5.7-3.7,9.2-3.5c1.1,1,2.6,1,3.9,1.6l0.4,4.6c-0.3,3.7-3.8,4.2-6.2,5.2c-3,1.3-6.2,2-9.2,3.5c-1.3,0.7-3.4,1.3-4.5-0.3
		c-1.3,0-1.4,1.2-2.6,1.2c-4.3-0.1-8.6,1.5-12.9,0.5c-1.8,1.3-4,0.9-6,1.2c-0.8,0.2-1.7-0.1-2.1-0.8l-0.8,1.5
		c-0.8,0.4-1,0.7-1.2,0.6c-3.7-0.5-7.4,0.2-10.7,1.8c-1.1,0.5-2.6,0.3-3.9,0.4c-1.1,0.1-1.9,2.2-3.2,0.4c-1,1.3-2.6,0.9-3.9,1.2
		c-0.7,0.1-0.9-0.5-1.5-0.7c-1,1.4-2.2,1.5-3.5,0.3l-0.6,2c-1.6-1.2-3.7-0.2-5.5-1.4l-1.3,1.9c-1.6,0.2-3.3,0.9-5.1-0.5
		c0.1,0.9,0.1,1.2,0.1,1.5c-0.2,0.1-0.5,0.3-0.6,0.3c-0.4-0.4-1-0.6-1.5-0.5c-3.3,0.7-6.8,0.1-10.1,1.7c-2,1-4.3,0.9-6.2-0.2
		c-4.4,2.9-11.4,3.2-14.6,2.3l-0.1,1.3c-0.2,0.1-0.4,0.4-0.6,0.4c-4.1,0.4-8.2,0.8-12.3,1.1c-3.3,0.2-6.2,2-9.6,1.9
		c-1-0.2-1.9-0.4-2.9-0.7c-0.5,0.3-1.1,1-1.7,1c-3,0.1-6,1.3-9,0.2c-1.5,1.7-3.6,0.5-5.4,0.9c-2.3,0.5-4.7,1.4-7.1,0.1
		c-0.8-0.4-2,0.1-3,0.2c-2.2,0-4.4-0.5-6.3-1.5c-2-1-4.1-1.7-5.8-3.2c-0.7-0.6-1.4,0-2.3-0.1c-0.9-1.2-1.8-2.2-3.7-2.3
		c-1,0.1-1.8,0.1-2.7,0.2c-0.4-0.2-0.7-0.5-1-0.8c-1.6-0.1-3.1,0.9-4.5-0.5c-0.8-2.6,1.1-4.7,0.8-7c0.9-1,2.4-1.3,3.6-0.5
		c1.4,0.3-0.6,3.2,2.2,2.8c0.3-0.1,0.7-0.3,1-0.5c1.4-0.7,1.8-2.5,3.7-2.2c1.6,0,3.2-0.1,4.9-0.3c1.6,0.6,2.2,2.5,4.2,2.3
		c1.6-0.1,2.3,1.6,3.6,2.2c2.8-0.3,5.5,0.7,8.4,0.3c2.6-0.3,5.3,0,7.8,0.8c1.3,0.2,2.7-0.1,3.7-0.8c1.6-1.1,3.6-1.7,5.5-1.7
		c3.4,0,6.8-1.4,10.2-0.2c1.2,0.5,2.6,0,3.1-1.2c0-0.1,0-0.1,0.1-0.2l1.8,1c1.9-1.2,3.9-1.9,6.1-0.8c0.1-0.4,0.1-0.8,0.2-1.2
		c0.2-0.1,0.5-0.4,0.7-0.4c1.6,0.2,3.4-1.1,5,0.3c0.7,0.3,1.5,0.2,2.1-0.2c2-1.6,4.4-1,6.6-1.4c1.2-0.2,2.5-0.1,3.5-1.2
		c0.6-0.6,1.8,0,2.6,0.5l1.5-1.8c2.3,0.3,4.7-1.2,7.1,0.2c0.1-0.1,0.3-0.5,0.5-0.5c4.4-1,8.9-1,13.6-1.6
		C501.7,31.8,503,33.2,504.5,32.1z"/>
	<path class="st1" d="M371,36.9c-0.8,0.5-1.9,0.3-2.5-0.5c-0.7-1-1.8-0.8-2.7-0.6c-1-1.6-4.1-3.8-7-5c0.2-1.3-1.5-2.3-0.6-3.8
		l-1.1-0.9c-0.8,0.6-2,1.5-2.7,0.8s-2.7,0.2-2.4-2c0.3-0.7,0.5-1.3,0.6-2c-0.4,0.9-0.2,1.2-0.5,1.6c-0.2,0.2-0.4,0.2-0.6,0.2
		c-1.6,0-2.8-1.3-4.2-1.3c-2.3,0-4.7,0.4-7,0.6c-2.6,0.2-5.2,0.6-7.9,0.7c-1.6,0.1-3.3,0.7-5-0.3c-1.1-0.4-2.4-0.3-3.4,0.3
		c-1.8,1.1-4,1.3-5.9,0.5c-1.5-0.6-2.5,1.1-3.9,1.3c-1.2,0-1.6-1.2-2.7-1.7l-1.3,2.1c-1.4-0.3-2.5-0.9-3.8-0.7
		c-1.8,0.3-3.6,0.8-5.4-0.3c-0.8-0.2-1.7-0.1-2.5,0.4c-2.2,1.4-4.6,1-7,1c-0.2,0-0.5-0.4-0.7-0.5c-0.8,1.4-2.2,1.1-3.5,1.1
		c-3,0.1-5.9,1.1-9.1,0.3c-0.2,0.3-0.7,0.9-1.2,1.4c-0.1,0.1-0.2,0.2-0.4,0.2c-4,0.5-8,0.5-11.8,1.9c-1.4,0.5-3.4,1.2-4.8-0.5
		c-1,1.2-3.6,0.6-2.6,3.6c-1.4-1.5-2.4-1.6-3.5-0.8c-1.7,1.2-3.9,1.3-5.4,2.7c-1.1,1-2.2-0.8-3.3,0.1s-2.8,0.6-4.2,0.7
		c-1.2,0.1-2.5,0.7-3.8-0.2s-2.5,0-4,0c-1.6-1.8,0.7-2.5,0.9-3.8c0.2-1.7-1.6-3.3,0-5.3c3.6-1.2,6.1,0.5,8.3,3.9
		c-0.6-1.5-1.2-2.6-0.7-4.2c1.9,0.1,2.2-1.6,3.3-2.4c2.3,1.6,4.1,0.5,5.9-1.4c1.9-0.1,3.8-0.6,5.5-1.6c2.1-1,4.3-1.7,6.6-2.1
		c1.4-0.3,2.9-0.4,4.3-0.4c0.8,0.8-0.4,0.9-0.3,1.4c0.8,0.6,1.6,0.3,2.4,0c0-0.4,0.1-0.8,0.1-1.2c0.2-0.1,0.5-0.4,0.7-0.4
		c2.6,0.2,4.8-3,7.6-0.7c3.3-2,7-1.2,10.4-1.9c0.6,1.1,2.1,0.4,2.8,1.7c0.5-0.8,0.9-1.6,1.1-2c4-0.7,7.4,0,11.2,0.8l0.9-1.9
		c1.3-0.2,2.5-0.2,3.8,0c2.3,0.7,4.9,0.4,7-0.8c0.7-0.4,1.7-0.6,2-0.4c1.8,1.5,3.7,0,5.6,0.5l0.6,1.3c0.7,0.4,1.4,0.1,2.1,0
		l0.4-1.6l2.1-0.2c0.5,1.1,0.3,2.7,1.8,3.2c1.3-1.4,2.8-2.7,4.3-3.8c1.3-1.1,3-1.4,4.6-1c2.9,0.7,6,0.4,8.6-0.9
		c0.2,0.1,0,0.8,0.3,1.2c0.7,0.5,1.4,0,2.2,0.1l0.4-1.6c1.8,0,2.6,1.8,4.3,2.2l0.2,2.7c0.9,1,1.9,0,2.7,0.7c0.1,0.6,0.3,1.3,0.4,2
		c0.8,0.5,0.7-0.6,1.2-0.7s1.2-0.1,1.9-0.2c2.8,3.3,6.8,4.8,10.6,6.5c1.3,0.5,2.5,1.2,3.5,2.3c1.1,1.4,3.4,1.3,4.1,3.5
		c-0.6,0.9-1.4,0.8-2.5,0.5c-0.9-0.4-1.8-0.7-2.7-0.9c-1.5-0.4-2.2,0.6-3.5,1c-0.6,0.1-0.7-0.3-0.9-0.5c-0.2,0.3-0.1,0.5,0.5,0.8
		C371,33.5,371.7,34.9,371,36.9z"/>
	<path class="st2" d="M55.9,35.8c-0.5,0.7-4.9,2.4-5.7,2.5c-1.3,0.1-2.6,0-3.4,1.2c-2.1-1-4.5-0.9-6.5,0.2c-1.9,1-4,2-6.4,1.8
		c-2-0.2-4,0.4-5.6,1.6c-1.6,1.1-3.6,0.5-5,2c-0.9,0.6-2,0.5-2.8-0.2c-0.6-0.6-1.4,0-2.3-0.1c-0.6-0.3-0.8-0.7-0.5-1.4
		c0.1-0.3,0.2-0.6,0.1-1c0.1-0.5,0.5-0.9,1-1c0.5-0.1,1-0.2,1.5-0.2c0.3,0,0.6,0.1,1,0.1c0.4,0.1,0.9,0.1,1.4,0.1
		c0.6-0.1,1.1-0.5,1.4-1.1c0.2-0.4,0.3-0.5,0.5-0.9c0.6-0.9,1.4-1.6,2.3-2.2c0.5-0.4,1.1-0.3,0.7-0.9c-0.6,0-1.1,0.3-1.5,0.7
		c-0.3,0.2-0.5,0.5-0.9,0.6c-0.7,0.3-1.5,0.2-2.1-0.1c-0.5-0.4-0.8-1-0.5-1.7c-0.2-1.1,0.2-2.3,1.2-2.9c1.2-0.6,2,1.1,3.1,0.5
		c1.3-0.1,1.3-1.9,2.7-2c1.2,0.2,0.8,2.3,2.4,2.3c0.5-0.3,0.2-0.8,0.2-1.4c0.2-0.4,0.4-0.7,0.7-1c2.3-0.4,4.5-0.6,6.7-0.8
		c0.8-0.6,1-1.8,1.5-1.9c1.8-0.2,1.2,1.1,1.9,1.5c1.5,0.4,1.7-1.2,2.6-1.8l1,0.7c0.7-0.4-0.1-1.5,0.3-1.6c1.3-0.6,1.7,0.3,2.2,0.5
		c1,0.2,1.2-0.8,1.8-1s1,0.3,1.3,0.3c2.4-0.9,5-1,7.5-0.3c1.2,0.4,2-1.6,3.5-1.2c1.2-2,2.7-0.6,4.2-0.3c0.8-0.8,0.5-2.2,1.7-2.8
		s2.2,0.1,3.1,0.5c0.2-0.1,0.5-0.3,0.8-0.4c2.9-1.2,5.9-2.2,8.9-3.1c2.4-0.5,4.8-1.3,7-2.4c1-0.5,2.1-0.4,2.9-1.6
		c0.6-0.9,1.7-1.2,2.6-0.6c0.1,0.1,0.2,0.1,0.3,0.2c2.5,0,3.1-4.4,6.3-2c0.8-1.2,2.7-1,2.9-2.7c3.1-0.4,4.2-0.2,8.5,1.7
		c0.8-1.2,0.5-2.1-0.6-2.9c0.2-1.1,1.1-1.5,4.7-1.9l1.3,1.6l3.1-0.3c0.6-0.3,0.3-0.9,0.5-1.6c1.3-0.3,2.8-0.4,3.3-2.1
		c3.8-0.9,7.8-0.1,11.3-2.3l2.2,1.7c1.3,0.2,1.4-1.3,2.5-1.1c0.7,0.2,1.4,0.1,2-0.4c0.1-0.4,0.1-0.8,0.2-1.2
		c0.2-0.1,0.5-0.4,0.7-0.4c1.2,0.1,2.5-0.8,3.8,0.2c0.7,0.5,1.5,0.2,2.3-0.3c2.6-1.3,5.5-1.4,8.2-0.4c0.6-0.2,0.8-1.3,1.7-1
		s0.4,1.3,1.2,1.6c0.5-0.5,0.9-1.2,1.9-1c0.8,0.4,0.8,1,0.3,1.9c-0.5,0.5-1.3,0.8-2,0.5c-0.2-0.1-0.2,0-0.2,0
		c0.6-0.1-0.3,0.8,0.2,0.6c0.1,0.5,0.1,1.1-0.1,1.6c-0.7,0.9-1.6,1.1-2.4,2c-0.2,0.6-0.3,0.9-0.5,1.5c-0.1,0.3-0.4,0.6-0.6,0.9
		c-0.8,0.6-1.6,0.6-2.3,1.4c0,1.1-0.9,1.4-1.2,1.1c-1-0.9-2.1-0.5-3.2-0.8l-0.4-1.2c-0.2-0.4-0.4-0.3-0.6,0
		c-1.3,1.1-2.7,2.1-4.5,1.9c-2.7-0.3-4.8,1.6-7.4,1.6c-2.4,0-4.5,1.2-6.7,2.1c-2.2,1-4.8,1-7-0.1l-0.9,1c-0.5-0.5-1-1.1-2-0.6
		c-0.1,0.4-0.2,1-0.4,1.7c-3.5-0.3-6.3,2.4-9.8,2.4c-0.2,0-0.4-0.4-0.7-0.6l-1.6,1.8c-2.3,0.5-4.6,1.3-6.8,2.2
		c-1.7,0.6-3.1,1.8-5.1,1.6c-1.7-0.1-2.6,1.5-3.8,2.1c-0.6,0.2-0.8-0.2-1.2-0.5c-2,1.3-4.3,0.7-6.4,1.3c-1.3,1.7-3.7,1.7-5.4,3.2
		c-1.1-1-2.5-0.9-4-0.6c-0.5,0.3-0.2,1-0.4,1.5c-3.3,1.5-6.9,2-10.3,2.9c-0.3,0.1-0.7-0.3-1.2-0.6c-1.8,1.9-4.7,2.4-7.1,1.2
		c-0.3-0.2-0.5-0.4-0.7-0.7L55.9,35.8z"/>
	<path class="st0" d="M161.5,2.6c1.1-0.2,1-0.9,0.9-1.8c2.8-0.9,5.6,1,8.3-0.2c0.5,0.9,1,1.6,1.4,2.3l-0.7,0.8
		c1,0.7,2.1,0,3.2,0.2c1.8,1.6,4.2,2.5,5.6,4.7c0.7,1,1.7,0.8,2.8,0.7c1.5,1.9,3.8,2.7,6,3.7c1.1,1.2,1.3,2.8,3.2,4.3
		c0.5,0.4,1.7-1.3,3.1-0.5c0.3,0.2,0.5,0.6,0.6,1c-0.2,0.7-0.5,1.3-0.9,1.9c1.9,0.9,3.6-2,5.6,0c0.2,0.5,0.4,0.8,0.9,0.9
		c0.4-0.1,0.8-0.3,1.2-0.5c0.9-0.3,1.1,0.4,1.8,0.6c1.8-0.6,2.4,0.6,3.3,1.9c-0.1,0.8-0.5,1.1-0.7,1.5c0.5,0.2,0.6-0.2,0.9-0.7
		c0-0.4,0.1-0.7,0.3-1c0.2-0.2,0.6-0.3,0.8-0.3c1.2,0.7,2.4,0.7,3.6,1.3c1.1,0.8,0.9,1.8,1,2.9c0.1,0.7,0.7,1.2,1.4,1.2
		c1.7,0,3.3-0.7,3.8,1.7c-0.5,1.6,0.5,2.7,0.3,4.3c-3.6,0.7-6.9-0.2-10.1-1.2c-1-0.3-0.9-0.9-0.5-1.9c0.4-0.6,0.9-0.8,0.5-1.4
		c-0.6,0.3-1.2,0.4-1.8,0.5c-1.5-0.7-2.5-1.4-4.2-1.3c-0.7,0-1.3,0.3-1.9,0.7c-1.3,0.2-2.5,0.8-3.3-0.4c-0.3,0.3-0.6,0.6-0.8,0.9
		c-0.5-0.2-0.5-0.7-0.5-1.3c-1.9-0.2-3.4-1.8-5.6-1.7c-0.9,0-1.8-0.8-1.8-2.2c-2.4-0.9-4.7-1.6-7-2.2c-0.3-0.1-0.8,0-0.8-0.1
		c-0.2-2.7-3.3-0.5-3.9-2.4c-0.2-0.5-0.4-1-0.6-1.5l-2,0.2c-0.6-1-1.2-2.1-1.8-3.2c-2.4-0.7-4.7-1.4-5.8-4.1l-2.5,0.2
		c-1-0.2-0.4-2.3-2.3-1.6c-0.3-0.1-0.6-0.2-0.9-0.1c-0.3,0.2-0.6,0.3-0.9,0.3c-1.2,0.4-2.5,0.3-3.6-0.3c-0.2-0.6-0.4-1.1-0.4-1.8
		c0.7-1.3,2.3-0.7,3.1-2.1c0.1-0.6,0.1-1.2,0-1.8C160.3,3,160.9,3,161.5,2.6z"/>
	<path class="st3" d="M210.4,29.5c-1.1,0.3-1.1,1.3-1.8,1.6c2.8,1.6,5.7,0.9,8.4,0.7c0.7,0.3,0.6,0.8,0.6,1.2
		c0.6,0.6,1.2,0.5,1.7-0.4c3.2-2,5.3,2.3,8.3,1.4c-2.6,0.7-3.5-1.5-5-2.7s-3.5-0.1-4.6-2c0.3-0.4,0.7-0.7,1.2-0.9l-2-0.8
		c-0.3,0.6-1,0.9-1.7,0.8c-0.7-0.8-1.7-1.4-2.7-1.4c-0.8-1.3,0.7-2.1,0.3-3.4c0.7-0.3,1.4-0.4,2.2-0.4l2.8,2.4l2.7-0.2
		c0.5,0.4,1,0.8,1.4,1.3c0.2,0.3,0,0.9,0.6,1.2c1.6-0.1,3.3-0.4,5-0.4c1.2,0,2.4-0.6,3.7,0.4c1.1,0.5,2.3,0.2,3.1-0.6
		c0.9-0.9,2.1-0.5,3.2-0.5c0.2,0.5,0.3,0.9,0.5,1.3c1,0.5,2,0,3.2,0c0.7,2,2.1,3.7,1.4,6l-1.2,0.1c-0.6-0.6,0.2-0.7,0.3-1.5
		c0-0.5-0.7,0-1.3-0.1l-1.9-3.3c-1.6,0.4-3.2,0.1-4.6-0.7c-0.4,1.1-0.4,2.4,0,3.5l1.6,0.4c0.4,1.9,0.1,3.3-2,3.4
		c-1,0.1-1.2,0.6-1,1.7c0.1,0.7-0.4,1.3-1,1.4c-0.3,0-0.6,0-0.8-0.2c-1.4-1-2.8-0.6-4.1-0.4c-3.4,0.4-6.6-0.7-9.9-0.8
		c-0.7,0-1-0.6-1.5-0.8c-1.9-0.9-3.7-2.1-5.2-3.6c-2.9-0.7-6.6,0.4-8-4c0.6-0.7,1.7-0.9,2.5-0.5c0.7,0.4,1.4,0.6,2.1,0.8
		c1.8,0,0.9-1.4,1.9-1.8C209.8,27.7,210.6,28.1,210.4,29.5z"/>
	<path class="st3" d="M19.7,41.8c-0.5,0.2-1.1,0.3-1.7,0.3l-3.3,0.3c-0.4,2.1-2.1,3.3-3.4,5.1l-3.5-2.7c-2.9,0.2-5.6-0.2-7.7-2.4
		c-0.4-1.7,0.8-3.2,0.7-4.8c1-0.5,1.5,0,2,0.5c0.9-0.7,0-1.6,0.4-2.4s1.3-0.2,2-0.5c1,0.5,0.3,1.6,0.9,2.3c1.3,0.2,2.7,0.2,3.7,1
		c0.9-1.3-1.3-1.3-0.2-2.7c1.4-1.2,3.2,1.2,4.9,0.3c1.5-1,3.3-1.4,5.1-1.2c1.2,1.2-1.2,2-0.1,3.2c1,0.5,1.9,0,3.4,0.1
		c1,0.6,1.1,1.4,1.8,2.1c0.2,0.5,0.3,1.1,0.3,1.6c-0.8,0.5-0.9-0.4-1.4-0.4c-0.3,0.4-0.6,0.7-1,0.9c-0.4-0.2-0.7-0.4-1-0.7
		C21,41.5,20.3,41.4,19.7,41.8C19.7,41.8,19.7,41.8,19.7,41.8z"/>
	<path class="st4" d="M393.4,41c-1,2.2-2.8,0.7-3.9,1.5c-0.9-0.8-0.4-1.6-0.8-2.3l1.6-0.8v-1.2c-1.1-0.3-2.2-0.2-3.3,0.2
		c-0.2,0.8,0.9,0.7,0.7,1.2c0.4,1.1-1.1,1.5-0.5,2.6l0.9,0.8c-0.5,1-1.6,0.3-2.2,0.8c-0.5,0.3-0.2,0.8-0.2,1.4
		c-0.9,0.3-1.3-0.7-2.3-0.5c-1.9,0.4-3.5-0.5-5-1.9c1.2-1.6,2.9-2.9,4.8-3.7c-1.1-0.1-3.2,0.5-3.9-2c0.3-1.8,2.1-2.2,3.4-3.6
		c0.9-0.3,1.9-0.7,2.3-0.4c2,1.6,4.2,1.8,6.5,2.3c1.9,0.4,3.8,1.4,5.8,0.9l0.1,1.6c-0.4,0.2-0.8,0.3-1.3,0.3
		c-0.9,0.7,0,1.6-0.4,2.4c-0.2,0.5-0.7,0.3-1.4,0.4C394.1,40.8,393.8,40.8,393.4,41z"/>
	<path class="st5" d="M382.7,33.4c0.3,0.7,0.4,1.4,0.4,2.2c-0.9,1.2-2.6,0-3.4,1.2l0.1,0.9c1.7,0.6,3.2,1.7,5.2,0.6
		c-0.2,1.7-1.3,1-1.9,1.3c-0.7,1.9-2.5,3.1-4.5,3.1c-1.2-0.9-2.5-1.2-3.8-2.1c-1.5,0-0.9-1.6-1.9-1.8c-0.7-0.4-1.3-0.9-1.9-1.4
		c0.1-2.2-2-3.7-1.6-6c2-0.1,2.3-1.7,2.7-3c1.1-0.4,1.6,0,1.5,1.3c0.6,1,1.4,0.9,2.5,0.8s1.6,1.2,2.8,0.8c0.9,0.6,1.8,1,2.8,1.3
		C382,32.8,382.3,33.1,382.7,33.4z"/>
	<path class="st4" d="M195.7,16.8c-0.7,0.2-1.4,0.4-2.1,0.4c-0.6,0.4-0.3,1-0.5,1.5c-0.8,0.8-1.6,0.1-2.2,0.6
		c-0.5-0.6-0.4-1.5,0.2-2.1c0.1-0.1,0.1-0.1,0.2-0.2c-1-0.5-2.2-0.6-2.8-1.6c0.4-0.5,1-1,0.7-2.1c0.7-0.2,1.4-0.4,2.1-0.4
		c0.7,0.2,0.6,0.8,0.8,1.4C193.3,14.9,195.6,14,195.7,16.8z"/>
	<path class="st2" d="M200.8,21.1c-0.4-0.7-0.1-1.4-0.8-1.8c-1.7-0.5-1.7,1.6-2.9,1.9c-1.6,0.6-2.8-1.6-4.6-0.6
		c1.3-0.7,2-1.8,3-2.8c0.4-0.2,0.5-0.3,0.9-0.3c1.9-0.5,3.4,1.2,5.1,0.5c0.4,0.6,0.8,1.2,1.3,1.7c0.1,0.3,0,0.6-0.4,0.9
		C202,21.2,201.4,21.3,200.8,21.1z"/>
	<path class="st2" d="M156.9,9.3c1.3-0.1,2.6-0.8,3.7,0.1l0.2,1.8c-1.4,0.2-2.9,0.9-4.4-0.1C156.2,10.4,156.4,9.7,156.9,9.3z"/>
	<path class="st3" d="M393.9,46.7c-0.1-1.4,0.8-1.3,1.4-1.2c1,0.2,2.1,0.6,3.1,0.9c-0.5,0.6-1.1,1.1-0.8,2.1
		C396.4,48.1,394.8,48.1,393.9,46.7z"/>
	<path class="st2" d="M504.5,31.9c0.2,0.4,0.3,0.9,0.3,1.3c-1.6,1.4-3-0.3-4.5-0.7c0.4-1.8,1.5-1.4,2.4-1
		C503.3,31.9,503.9,32,504.5,31.9z"/>
	<path class="st3" d="M22.6,37.6c0.8-0.3,1.6-0.4,2.4-0.5c0.5-0.5,1.3-0.5,1.7,0c0.1,0.1,0.2,0.2,0.3,0.4
		c-0.8,0.4-0.8,0.9-0.8,1.5c0,0.8-0.7,0.8-1.5,0.8c-1,0-1.4-0.6-2-1.4C22.7,38.1,22.6,37.9,22.6,37.6z"/>
	<path class="st2" d="M208.6,21.8l0.1,0.9c-0.1,0.3-0.3,0.5-0.6,0.4c-0.3-0.4-0.5-0.8-0.6-0.8c-1.4,0.2-1.6-1-2.3-1.8
		C206.5,18.9,207.4,19.1,208.6,21.8z"/>
	<path class="st4" d="M374.7,40.5c1.5-0.1,3.2-0.4,3.7,1.9C377,42.5,375.2,42.8,374.7,40.5z"/>
	<path class="st0" d="M156.8,9.1c0.2,0.6,0.6,1.2-0.3,1.8l-1.8,0.2c-0.2-0.5-0.4-1.1-0.4-1.7L156.8,9.1z"/>
	<path class="st2" d="M213.1,23.1c-1.3,0.7-2.9,0.3-3.6-1C210.8,21.4,212.4,21.9,213.1,23.1z"/>
	<path class="st1" d="M381.9,32.3c-0.5,0.2-1.1,0.3-1.6,0.4c-1,0.1-1.1-0.5-1.1-1.4C380.4,30.6,381.1,31.5,381.9,32.3z"/>
	<path class="st1" d="M370.9,37.3c0.9-0.3,2-0.6,1.9,1.2C371.9,38.8,370.8,39.1,370.9,37.3z"/>
	<path class="st3" d="M17.6,43.1c0.3,0.5,0.4,1,0.4,1.5c-0.4,0.2-0.9,0.4-1.4,0.3C15.9,44,15.7,43.2,17.6,43.1z"/>
	<path class="st3" d="M201.5,28.8c-0.2-0.6-0.6-1.3,0.3-1.8c0.6,0.3,0.7,0.7,0.5,1.5C202.1,28.8,201.7,28.8,201.5,28.8z"/>
	<path class="st3" d="M22.2,35.6c0.2,0.5,0.4,1,0.4,1.5C21.2,37.2,21.5,36.5,22.2,35.6z"/>
	<path class="st3" d="M390.3,46.1c0-0.3,0.1-0.7,0.2-1c0.9,0,0.6,0.7,0.7,1.3C390.9,46.6,390.6,46.5,390.3,46.1z"/>
	<path class="st4" d="M196.7,17.6c0,0.2-0.4,0.3-0.6,0.3s-0.3-0.4-0.3-0.6C196.1,17.1,196.4,17.2,196.7,17.6z"/>
	<path class="st3" d="M32.4,31.1c0.1,0.3,0,0.6-0.4,0.9C32,31.8,32.1,31.5,32.4,31.1z"/>
	<path class="st2" d="M161.7,9.5c-0.2-0.6-0.1-1.1,0.6-0.3C162.4,9.4,161.9,9.5,161.7,9.5z"/>
	<path class="st1" d="M324.4,14.6c-0.5,0-0.8-0.2-0.4-0.5C324.1,14.1,324.4,14.3,324.4,14.6z"/>
	<path class="st4" d="M454.5,43.5c1.2-0.7,1.4-1.9,2.5-2c1.6,0.1,0.4,1.5,0.9,1.8c0.5,1.1,1.6,0.4,2,1.1c0.1,0.6,0.1,1.2,0.2,1.7
		c-0.2,0.4-0.7,0.4-1.1,0.6c-1.6,0.5-2.1-1.4-3.4-1.5c-0.9-0.2-0.9,1.1-2.3,1l-2.7-2.2c-0.9-0.1-1.7,0.4-2.3-0.3
		C450.2,40.8,452.2,42.6,454.5,43.5z"/>
	<path class="st6" d="M556.8,30.6c0.9,0.2,0.8,0.8,0.5,0.8c-1.4,0-2.7,0.7-4.2-0.1c-1.1-0.6-2.7-0.1-4.5-0.2l1.8-1.7
		c2.2,0.5,4.4-1.2,6.8-1.5c1.2,1.8-0.4,1.7-1,2.1c0,0.1,0,0.2,0,0.3C556.1,30.5,556.2,30.5,556.8,30.6z"/>
	<path class="st6" d="M399.9,43c-0.4-0.3-0.5-0.5-0.6-0.5c-0.3,0.2-0.6,0.5-1,0.8l-1.6-1.2l1.9-1.5c0.2-0.1,0.6,0.2,1.1,0.7
		c1-0.4,1.7-1.3,2.9-0.8c0.4,0.2,0.4,0.4,0,0.6C401.9,41.8,401.6,43.3,399.9,43z"/>
	<path class="st4" d="M537.4,31.5c-0.7-0.6-1.5-1.1-2.4-1.3l7-0.6C540.5,30.9,539.6,32.6,537.4,31.5z"/>
	<path class="st6" d="M415.9,46.4c0.8-0.3,1.7-0.4,2.5-0.5c0.5,2.6-2,2.5-2.8,3.7c-0.5-0.7-1.7-0.8-1.3-2.1
		C414.9,47.3,415.5,46.9,415.9,46.4z"/>
	<path class="st6" d="M415.9,46c-1.9,0.7-3.5-0.4-5.3-0.5c-0.3-0.5-0.1-1.2,0.4-1.5c1.5,0.5,3.2,0.7,4.8,0.6L415.9,46z"/>
	<path class="st7" d="M443.1,41.7c0.6,0.2,1.1-0.1,1.6,0.6c-1.4,0.9-2.9,0.4-4.3,0.5C441.3,42.4,441.8,41.3,443.1,41.7z"/>
	<path class="st6" d="M460.7,41c1.6-1.3,2.1,0,2.6,1.2c-0.4,0.8-0.8,0.6-1.3,0.7C461.6,42.2,461.2,41.6,460.7,41z"/>
	<path class="st6" d="M517.3,30.9c1.2-0.4,1.8-0.1,1.5,1.2c-1.1,0.5-2.4,0.5-3.5,0.1C515.9,31.8,516.6,31.4,517.3,30.9z"/>
	<path class="st6" d="M562,29.2c-1.6-1.8-0.3-2.3,1.5-3.1C563.2,27.2,562.7,28.3,562,29.2z"/>
	<path class="st7" d="M440.5,46.4c-1-0.2-0.6-1.5-1.6-1.8c0.4-1.2,1.5-0.2,2-0.9C441.7,44.8,439.8,45.3,440.5,46.4z"/>
	<path class="st7" d="M393.6,41.2c-0.1-0.7-1-0.7-1.2-1.4c1-0.7,1.7-0.7,1.8,1.1C394.2,41.1,393.8,41.2,393.6,41.2z"/>
	<path class="st7" d="M497.4,40.7c-0.4-0.4-0.6-0.7-0.6-0.7c0.3-0.4,0.8-0.6,1.3-0.3c0.4,0.3,0.6,0.8,0.3,1.3
		c0,0.1-0.1,0.2-0.2,0.2C498.1,41.2,497.8,41,497.4,40.7z"/>
	<path class="st7" d="M562,30.1c0.8,0,1.3-0.3,1.8,0.3c-0.7,0.6-1.6,0.7-2.4,0.3c-0.5-0.2-0.5-0.7,0-0.3S561.4,29.6,562,30.1z"/>
	<path class="st7" d="M494.8,36.1c-0.2-0.7-0.3-1.5-0.2-2.3c0.6,1.2,1,1.8,1.2,2.3C495.4,36.2,495.1,36.2,494.8,36.1z"/>
	<path class="st7" d="M440,49.3c0.1-0.5,0.5-0.8,0.5-0.8c0.4,0.2,0.6,0.8,0.3,1.2c0,0.1-0.1,0.2-0.2,0.2
		C440.6,50,440.3,49.8,440,49.3z"/>
	<path class="st6" d="M460.1,39.3c-0.5,0-0.8-0.2-0.4-0.5C459.9,38.7,460.1,38.9,460.1,39.3z"/>
	<path class="st7" d="M322.6,22.1l-3.1,0.3c-0.8-0.4-0.4-1.8-1.5-2c0.8-1,1.4-2.1,2.5-2.7c1.4,0.9,0.6,2.3,1.1,3.2
		C321.7,21.9,323.8,20.3,322.6,22.1z"/>
	<path class="st6" d="M341.8,18.6c-1.1,0-1.9,0.5-2.5,0c-0.1-1.2,1.3-0.3,1.5-1.2l-0.8-0.8c0.5-0.9,1-0.8,4.4,0.5
		c0.1,0.6,0.1,1.2,0.1,1.8c0,0.1-0.2,0.2-0.3,0.3c-1,0-0.3-1.3-1.1-1.5C342.7,18,342.2,18.3,341.8,18.6z"/>
	<path class="st6" d="M349.5,18.5c0.5-0.9,0.8-1.5,0.8-1.5c1.8-0.5,2.1,0.4,2.8,0.7l-0.9,2.5C350.1,20.2,350.1,20.2,349.5,18.5z"
		/>
	<path class="st7" d="M359.8,22.2c0.9,1.3-0.6,1.6-0.9,2.6c-1.5,0.5-3,0.7-4.2-0.8c0.8-1,2.5,0.1,2.9-1.6l1,0.8
		C358.9,22.8,359.3,22.4,359.8,22.2z"/>
	<path class="st6" d="M282.9,20.7c1.3-0.3,2.7-0.5,4-0.6c-1.7,0.8-2.9,2.5-5.1,2C282.2,21.6,282.5,21.2,282.9,20.7z"/>
	<path class="st6" d="M352.3,24.7c0-1.6-1.4-2-2.2-2.9c0.5-0.8,1.4-0.4,2-0.6c1,0.4,0.8,1.7,1.6,2.2
		C353.2,23.8,352.8,24.3,352.3,24.7z"/>
	<path class="st6" d="M376.4,30.2c-1.1,0.7-2,2.2-3.4,1c0.3-0.4,0.6-0.7,0.8-1.2C374.6,29.9,375.6,29.2,376.4,30.2z"/>
	<path class="st7" d="M329,22.2l-1.2-1c0.6-0.8,1.5-0.5,2.4-0.6C330.8,21.6,330.7,22.3,329,22.2z"/>
	<path class="st7" d="M349.2,15.9c-0.8-0.4-1.7-0.7-2.6-0.8c0.7-0.7,1.7-0.9,2.6-0.5C349.3,15,349.3,15.5,349.2,15.9z"/>
	<path class="st7" d="M268,26.9c-0.9,0.2-1.6,0.7-2.5,0l1.6-1.2C267.4,26,267.8,26.4,268,26.9z"/>
	<path class="st7" d="M338.3,22.2c-0.7,0.2-1.5,0.3-2.3,0.2l2.3-1.2C338.4,21.5,338.4,21.9,338.3,22.2z"/>
	<path class="st7" d="M269.2,27.9c0.1-0.5,0.5-0.8,0.5-0.8c0.4,0.2,0.6,0.8,0.3,1.2c0,0.1-0.1,0.2-0.2,0.2
		C269.8,28.6,269.5,28.4,269.2,27.9z"/>
	<path class="st5" d="M366.9,32.2c-0.5-0.2-0.8-0.5-0.8-0.5c0.2-0.4,0.8-0.6,1.2-0.3c0.1,0,0.2,0.1,0.2,0.2
		C367.6,31.6,367.4,31.9,366.9,32.2z"/>
	<path class="st5" d="M370.2,27.2c0.2-0.8,0.8-0.9,1.4-0.5C371.5,27.5,370.9,27.4,370.2,27.2z"/>
	<path class="st7" d="M295.9,17.7c0.5,0,0.8,0.2,0.3,0.5C296.2,18.3,295.9,18,295.9,17.7z"/>
	<path class="st5" d="M369.4,30.8c-0.4,0.3-0.6,0.1-0.8-0.2C368.8,30.1,369.1,30.4,369.4,30.8z"/>
	<path class="st7" d="M150,7.7c-0.3-1.2-0.2-2.2-1.4-2.8l2.8-1.7l1.6,1.2C152,5.5,152.6,7.8,150,7.7z"/>
	<path class="st7" d="M136.1,11.9l-1.4,0.1c-1-0.8,0-2.5-1.5-3.3c1.9,0.6,3.9,0,5.3,1.6C137.9,11,136.8,10.9,136.1,11.9z"/>
	<path class="st7" d="M27.3,37.8c-0.3-1-1-0.8-1.8-0.7c-0.2,0-0.3-0.4-0.3-0.6c0.3-0.6,0.8-0.7,1.5-1.1c0.8-0.2,1.6-0.3,2.4-0.4
		c0.5,0.6,1.6,0.8,1.5,1.9c-0.1,0.2-0.3,0.6-0.4,0.7C29.2,37.6,28.4,37.7,27.3,37.8z"/>
	<path class="st6" d="M160,5.2c0.2,0.7,0.4,1.4,0.4,2.2c-1.4,1.5-2-1-3.3-0.2c-0.2-0.5-0.4-1.1-0.4-1.7L160,5.2z"/>
	<path class="st7" d="M103.1,18.4c0.7,0.3,1.4,0.7,2,1.3c-1.8,0.6-3.3,1.1-4.5-0.7C101.2,18.4,102,18.7,103.1,18.4z"/>
	<path class="st7" d="M60.5,28.8c-0.2,1-1.5,0.5-1.8,1.6c-0.8-0.5-1.8-0.8-1.5-2.2C58.3,27.5,59.3,27.5,60.5,28.8z"/>
	<path class="st7" d="M35.7,36.1c-0.4,1.4-1.9,0.6-2,2c-0.8-0.8-0.5-1.6-0.7-2.3c0.6-0.7,1.7-0.8,2.4-0.2
		C35.5,35.8,35.6,36,35.7,36.1z"/>
	<path class="st7" d="M112.8,16c1.2-0.6,1.7,0.3,2.4,0.8c-0.6,0.7-0.8,1.8-2.2,1.5C112.4,17.7,112.8,16.9,112.8,16z"/>
	<path class="st7" d="M64.9,26.4c1,0.3,1.1,0.8,0.9,1.4c-0.7,0.5-1.6,0.6-2.3,0.2C62.9,26.9,63.3,26.4,64.9,26.4z"/>
	<path class="st7" d="M22.7,38.4c0.9-0.3,1.2,0.6,1.9,1.2l0.1,0.9c-0.5,0.3-1.1,0.4-1.7,0.4L22.7,38.4z"/>
	<path class="st6" d="M56,35.8c-1-0.2-2-0.5-2.9-0.9c1.1-0.6,2.5-0.8,3.8-0.4C56.5,34.9,56.2,35.3,56,35.8z"/>
	<path class="st6" d="M19.7,42c-0.2-0.4-0.4-0.9-0.4-1.4c1-0.7,1.8-0.8,1.9,1C20.8,41.9,20.2,42,19.7,42z"/>
	<path class="st7" d="M35.3,33.3c-0.9,0.2-1.7,0.7-2.5,0C33.7,32.5,34.6,32.4,35.3,33.3z"/>
	<path class="st7" d="M125.1,6c0.9-0.2,1.7-0.7,2.5,0C126.7,6.8,125.8,7,125.1,6z"/>
	<path class="st7" d="M161.5,2.5c0.3,1-0.4,0.9-1.2,1c-0.3,0-0.7-0.1-1-0.2C159.6,2,160.6,2.8,161.5,2.5z"/>
	<path class="st7" d="M47.9,31.5c-0.2-0.6-0.6-1.3,0.1-1.8C48.7,30.3,48.7,30.9,47.9,31.5z"/>
	<path class="st7" d="M135.6,5.1c0.9,0.2,0.7,0.8,0.6,1.5C135.4,6.3,135.5,5.8,135.6,5.1z"/>
	<path class="st3" d="M26.6,35.2c0.3,1-0.4,0.9-1.2,1C25,35.2,25.7,35.3,26.6,35.2z"/>
	<path class="st7" d="M47.5,31.5c0.2,1.4-0.8,0.7-1.5,1.2C46.2,31.4,46.8,31.6,47.5,31.5z"/>
	<path class="st6" d="M21.3,42.1c0.3-0.1,0.6,0,0.9,0.4C21.9,42.6,21.6,42.4,21.3,42.1z"/>
	<path class="st7" d="M217.9,29.1c0.1,0.5,0.5,0.8,1,0.8c1.4-0.1,2.9-0.2,3.9-0.3c2.5,0.7,1,3.7,3.3,4.1l1.7-0.2
		c0.6-0.3,0.3-1,0.5-1.5c0.6-0.6,1.4-0.3,2.4-0.6c-0.3,1-0.5,1.8-0.8,2.7l-2,0.4c-0.7,0.4,0.3,1.5-1.2,1.8
		c-1.6-2.1-4.3-2.8-7.1-3.8C218,31.5,217.4,30.3,217.9,29.1z"/>
	<path class="st6" d="M207.6,23l0.9-0.1c0.2,0.1,0.2,0.3,0.3,0.4c0.2,0.2,0.5,0.4,0.7,0.6c0.3,0.8-0.9,0.9-0.8,1.5l-4.1,0.4
		C204.4,23.6,205.6,23,207.6,23z"/>
	<path class="st6" d="M202.4,28.8c-0.2-0.5-0.4-1-0.4-1.5c1.7-0.6,3.5-0.4,5.1,0.4c0.2,0.1,0.3,0.7,0.4,1.3
		c-0.5,0.8-1.3,0.8-2.3,0.6C204.5,27.8,203.3,28.9,202.4,28.8z"/>
	<path class="st7" d="M212.6,27.1c0.8-0.1,0.8-1.4,1.6-1.3c0.9,0,1.2,0.8,1.9,1.1c-0.3,0.4-0.6,0.8-0.8,1.2
		C214.1,28.9,213.4,28,212.6,27.1z"/>
	<path class="st6" d="M181.8,11.4l1.4,1.2c-1.8,0.4-3.6-0.2-4.8-1.6C179.7,9.3,180.4,12.1,181.8,11.4z"/>
	<path class="st6" d="M168.8,2.7c1,0.3,1.1,0.8,0.9,1.4c-0.7,0.5-1.6,0.6-2.3,0.2C166.8,3.2,167.2,2.7,168.8,2.7z"/>
	<path class="st7" d="M210.4,29.8c-0.1-0.9-0.6-1.8-1.3-2.3c0.9-0.5,2-0.2,2.5,0.6c0,0,0,0.1,0.1,0.1
		C212.3,29.2,211.8,29.8,210.4,29.8z"/>
	<path class="st7" d="M184,14.5c0.6-1.3,1.4-0.9,2.2-1C185.5,15.1,185.5,15.1,184,14.5z"/>
	<path class="st7" d="M200.3,21l1.8-0.2c0.1,1-0.6,1.8-1.6,1.9c-0.1,0-0.2,0-0.3,0C199.6,22.2,199.6,21.6,200.3,21z"/>
	<path class="st7" d="M189.5,23.7c-0.2-0.5-0.4-1.1-0.4-1.6c0.8,0,1.5,0.6,1.8,1.4C190.5,23.6,190.1,23.6,189.5,23.7z"/>
	<path class="st0" d="M204.9,29.6c0.8-0.3,1.6-0.4,2.4-0.4C207,30.8,205.9,30.2,204.9,29.6z"/>
	<path class="st6" d="M376.7,33l0.1,1.3c-2.3,0.6-2.3,0.6-3.7-1.5C374.2,32,375.7,32.1,376.7,33z"/> -->
	<polyline class="st8" points="11.3,40.7 160.2,5.2 233.3,37.3 345.5,14.5 415.7,49.7 583.3,19.9 	"/>
</mask>
</svg>
